<?xml version="1.0" standalone="no"?>
<!DOCTYPE svg PUBLIC "-//W3C//DTD SVG 20010904//EN"
 "http://www.w3.org/TR/2001/REC-SVG-20010904/DTD/svg10.dtd">
<svg version="1.0" xmlns="http://www.w3.org/2000/svg"
 width="64.000000pt" height="64.000000pt" viewBox="0 0 64.000000 64.000000"
 preserveAspectRatio="xMidYMid meet">

<g transform="translate(0.000000,64.000000) scale(0.100000,-0.100000)"
fill="#31344B" stroke="none">
<path d="M12 598 c-27 -27 -11 -48 46 -57 l34 -6 63 -180 62 -180 199 0 199 0
0 25 0 25 -175 3 -175 2 -65 188 -66 187 -54 3 c-34 2 -60 -2 -68 -10z"/>
<path d="M240 488 c0 -7 14 -55 31 -106 l31 -93 141 3 141 3 23 73 c12 41 25
87 28 103 l7 29 -201 0 c-154 0 -201 -3 -201 -12z"/>
<path d="M246 124 c-22 -21 -20 -50 4 -74 24 -24 38 -25 68 -4 24 17 30 62 10
82 -17 17 -64 15 -82 -4z"/>
<path d="M482 128 c-20 -20 -14 -65 10 -82 30 -21 44 -20 68 4 24 24 26 53 4
74 -18 19 -65 21 -82 4z"/>
</g>
</svg>
