<?xml version="1.0" standalone="no"?>
<!DOCTYPE svg PUBLIC "-//W3C//DTD SVG 20010904//EN"
 "http://www.w3.org/TR/2001/REC-SVG-20010904/DTD/svg10.dtd">
<svg version="1.0" xmlns="http://www.w3.org/2000/svg"
 width="512.000000pt" height="512.000000pt" viewBox="0 0 512.000000 512.000000"
 preserveAspectRatio="xMidYMid meet">
<metadata>
Created by potrace 1.16, written by Peter Selinger 2001-2019
</metadata>
<g transform="translate(0.000000,512.000000) scale(0.100000,-0.100000)"
fill="#31344b" stroke="none">
<path d="M2235 5105 c-462 -60 -885 -237 -1255 -523 -117 -91 -316 -287 -413
-407 -276 -342 -459 -746 -537 -1186 -28 -156 -39 -531 -21 -702 51 -475 232
-923 529 -1307 91 -117 287 -316 407 -413 442 -357 1013 -567 1543 -567 l122
0 0 1000 0 1000 -275 0 -275 0 0 315 0 315 275 0 275 0 0 278 c0 371 17 481
100 644 78 153 211 272 374 333 149 56 264 67 551 55 120 -6 234 -13 252 -16
l33 -6 0 -278 0 -278 -227 -4 c-240 -5 -277 -11 -343 -58 -16 -11 -41 -46 -57
-78 l-28 -57 -3 -267 -4 -268 319 0 318 0 -40 -315 -40 -315 -277 0 -278 0 0
-954 0 -955 53 15 c267 79 586 245 827 432 117 91 316 287 413 407 276 342
456 737 534 1175 35 196 44 546 19 750 -91 751 -507 1419 -1141 1836 -329 216
-695 350 -1085 399 -152 18 -501 18 -645 0z"/>
</g>
</svg>
