<?xml version="1.0" standalone="no"?>
<!DOCTYPE svg PUBLIC "-//W3C//DTD SVG 20010904//EN"
 "http://www.w3.org/TR/2001/REC-SVG-20010904/DTD/svg10.dtd">
<svg version="1.0" xmlns="http://www.w3.org/2000/svg"
 width="353.000000pt" height="155.000000pt" viewBox="0 0 353.000000 155.000000"
 preserveAspectRatio="xMidYMid meet">

<g transform="translate(0.000000,155.000000) scale(0.100000,-0.100000)"
fill="#31344B " stroke="none">
<path d="M500 1407 c-41 -18 -167 -78 -280 -132 -113 -54 -206 -99 -206 -99
-1 -1 -5 -110 -9 -243 -7 -225 -6 -243 10 -249 33 -13 36 16 29 244 -4 125 -3
222 2 222 5 0 125 -56 268 -125 142 -69 263 -125 268 -125 22 0 215 84 403
176 l200 97 -120 58 c-247 120 -447 209 -468 209 -12 0 -56 -15 -97 -33z"/>
<path d="M190 692 c1 -255 10 -363 36 -414 66 -131 193 -198 374 -198 231 0
368 108 400 315 6 39 9 171 8 301 l-3 231 -92 -40 -93 -39 0 -107 c0 -136 -16
-323 -31 -369 -6 -21 -21 -48 -33 -61 -52 -59 -172 -79 -251 -42 -81 37 -103
87 -115 265 -5 72 -9 170 -10 218 l0 88 -39 19 c-21 11 -64 31 -95 45 l-56 25
0 -237z"/>
<path d="M1200 510 l0 -370 75 0 75 0 0 370 0 370 -75 0 -75 0 0 -370z"/>
<path d="M1630 651 c-80 -26 -148 -91 -168 -160 -46 -150 29 -307 164 -347 95
-27 228 -2 277 54 18 20 18 21 -4 51 -27 36 -50 39 -110 11 -24 -11 -55 -20
-67 -20 -41 0 -90 30 -106 65 -31 66 -33 65 138 65 180 0 182 1 173 82 -15
123 -88 194 -207 203 -36 2 -76 1 -90 -4z m134 -122 c15 -12 26 -30 26 -45 0
-24 -1 -24 -95 -24 -108 0 -118 9 -66 61 37 36 94 40 135 8z"/>
<path d="M2157 650 c-20 -6 -54 -19 -75 -29 -69 -37 -68 -36 -38 -75 31 -41
47 -44 107 -16 81 36 134 18 145 -50 l6 -35 -85 -12 c-144 -20 -217 -74 -217
-161 0 -50 26 -104 57 -120 59 -31 151 -25 208 14 45 30 49 30 63 -1 10 -22
18 -25 62 -25 l51 0 -3 198 c-3 196 -3 199 -30 239 -14 22 -43 48 -65 58 -44
22 -131 28 -186 15z m143 -339 c0 -34 -5 -42 -35 -61 -23 -14 -47 -20 -71 -18
-46 4 -62 26 -48 65 11 32 55 52 117 52 37 1 37 1 37 -38z"/>
<path d="M2785 646 c-16 -7 -41 -25 -54 -40 -30 -32 -41 -33 -41 -3 0 35 -19
47 -77 47 l-53 0 0 -255 0 -255 75 0 75 0 0 164 0 164 31 26 c24 20 41 26 79
26 53 0 53 0 65 79 5 32 4 46 -6 52 -20 12 -59 10 -94 -5z"/>
<path d="M3198 650 c-15 -4 -41 -18 -58 -30 -17 -12 -32 -21 -33 -19 -23 42
-25 44 -81 47 l-56 3 0 -256 0 -255 75 0 75 0 0 185 c0 182 0 185 23 200 41
27 80 29 110 5 l27 -21 0 -185 0 -184 76 0 75 0 -3 198 c-3 176 -5 201 -24
237 -34 67 -124 100 -206 75z"/>
</g>
</svg>
