<?xml version="1.0" standalone="no"?>
<!DOCTYPE svg PUBLIC "-//W3C//DTD SVG 20010904//EN"
 "http://www.w3.org/TR/2001/REC-SVG-20010904/DTD/svg10.dtd">
<svg version="1.0" xmlns="http://www.w3.org/2000/svg"
 width="207.000000pt" height="222.000000pt" viewBox="0 0 207.000000 222.000000"
 preserveAspectRatio="xMidYMid meet">

<g transform="translate(0.000000,222.000000) scale(0.100000,-0.100000)"
fill="#31344B" stroke="none">
<path d="M911 2014 c-248 -67 -411 -311 -373 -561 32 -208 191 -380 390 -422
260 -54 515 91 593 339 26 79 28 212 6 286 -53 178 -190 312 -367 359 -69 19
-179 18 -249 -1z"/>
<path d="M458 1046 c-218 -95 -329 -254 -284 -409 66 -226 415 -379 866 -379
591 0 989 270 839 570 -41 82 -110 142 -233 203 -56 27 -107 49 -114 49 -7 0
-40 -22 -72 -48 -73 -59 -185 -117 -265 -137 -76 -19 -234 -19 -310 0 -84 22
-189 75 -263 134 -34 28 -68 51 -75 51 -6 0 -47 -15 -89 -34z"/>
</g>
</svg>
