<?xml version="1.0" standalone="no"?>
<!DOCTYPE svg PUBLIC "-//W3C//DTD SVG 20010904//EN"
 "http://www.w3.org/TR/2001/REC-SVG-20010904/DTD/svg10.dtd">
<svg version="1.0" xmlns="http://www.w3.org/2000/svg"
 width="512.000000pt" height="512.000000pt" viewBox="0 0 512.000000 512.000000"
 preserveAspectRatio="xMidYMid meet">
<metadata>
Created by potrace 1.16, written by Peter Selinger 2001-2019
</metadata>
<g transform="translate(0.000000,512.000000) scale(0.100000,-0.100000)"
fill="#31344b" stroke="none">
<path d="M3335 4624 c-319 -71 -572 -261 -723 -544 -104 -194 -144 -457 -106
-682 l7 -38 -39 0 c-22 0 -96 7 -164 15 -650 80 -1245 366 -1713 824 -65 63
-143 146 -174 183 -32 37 -61 68 -65 68 -26 0 -110 -223 -132 -349 -68 -396
85 -782 408 -1029 l29 -22 -49 6 c-127 14 -267 55 -364 104 -22 11 -42 20 -46
20 -4 0 -4 -40 -1 -88 22 -312 174 -590 422 -775 96 -72 192 -121 304 -158
l84 -27 -58 -12 c-68 -14 -270 -18 -337 -7 -34 6 -48 5 -48 -3 0 -29 68 -171
122 -252 171 -261 463 -440 770 -473 l68 -7 -45 -35 c-195 -148 -496 -285
-770 -348 -177 -41 -469 -63 -627 -48 -49 5 -88 6 -88 2 0 -4 51 -36 113 -72
381 -220 755 -340 1215 -388 142 -15 589 -6 722 14 575 89 1030 284 1441 619
682 555 1108 1450 1109 2330 l0 146 89 71 c113 91 291 276 371 386 34 47 60
88 57 91 -2 3 -38 -8 -78 -24 -82 -33 -217 -75 -294 -92 -87 -20 -197 -38
-188 -31 4 4 34 26 65 50 73 55 182 170 231 244 42 62 111 204 122 249 7 27 4
26 -127 -40 -132 -67 -313 -134 -460 -170 l-76 -20 -44 45 c-98 100 -297 211
-453 253 -109 29 -376 37 -480 14z"/>
</g>
</svg>
